<?xml version="1.0" encoding="utf-8"?>
<!-- Generator: Adobe Illustrator 26.0.2, SVG Export Plug-In . SVG Version: 6.00 Build 0)  -->
<svg version="1.1" id="Ebene_1" xmlns="http://www.w3.org/2000/svg" xmlns:xlink="http://www.w3.org/1999/xlink" x="0px" y="0px"
	 viewBox="0 0 288 560" style="enable-background:new 0 0 288 560;" xml:space="preserve">
<style type="text/css">
	.st0{opacity:0.3;}
	.st1{fill:none;stroke:#E8E0DB;stroke-width:10;stroke-miterlimit:10;}
</style>
<g class="st0">
	<circle class="st1" cx="187.2" cy="484.5" r="23.7"/>
	<circle class="st1" cx="69.2" cy="371" r="23.7"/>
	<circle class="st1" cx="69.2" cy="196.3" r="23.7"/>
	<circle class="st1" cx="191.9" cy="74.8" r="23.7"/>
	<path class="st1" d="M95.3,261.8c-6.3-7.4-18.1-12.3-28.6-12.3c-19,0-34.3,15.4-34.3,34.3s15.4,34.3,34.3,34.3
		c10.6,0,21.4-3.6,27.7-11.1"/>
	<path class="st1" d="M221.9,261.5c0,0-3.3,8-3.8,19.3c-0.3,5.6,0.5,12.2,3.2,19.4l-73.8,37.1c0,0-83.1,34.8-128.4-55.3
		c0,0,13.3-23.9,36.4-41.8c23.1-17.9,56.1-29.9,85.7-15.7C202.8,253.9,221.9,261.5,221.9,261.5z"/>
	<path class="st1" d="M131.5,341.7c0,0-46.9-2.7-35.7-42.1"/>
	<path class="st1" d="M131.5,221.6c0,0-46.9,2.7-35.7,42.1"/>
	<path class="st1" d="M166.3,140.5c0.9-9.7-3.9-21.5-11.3-29c-13.3-13.5-35-13.7-48.5-0.4s-13.7,35-0.4,48.5
		c7.4,7.6,17.5,12.7,27.3,12"/>
	<path class="st1" d="M255.2,230.6c0,0-8,3.3-16.4,10.8c-4.2,3.7-8.4,8.9-11.6,15.9l-78.2-26.7c0,0-83.1-34.9-50.5-130.3
		c0,0,26.4-7.3,55.3-3.3c29,3.9,60.6,19.1,71.3,50.2C247.2,211.7,255.2,230.6,255.2,230.6z"/>
	<path class="st1" d="M134.6,222.4c0,0-30.9-35.3,5.1-55"/>
	<path class="st1" d="M220.3,138.2c0,0-34.8-31.5-55.1,4"/>
	<path class="st1" d="M255.1,99.7c-7.2-6.6-10.3-17.6-9.8-28.1c0.9-18.9,16.9-33.6,35.9-32.7l4.4,0.3"/>
	<path class="st1" d="M283.8,25.9c-0.2-0.1-0.4-0.2-0.4-0.2C218,54.9,214.7,106,218.2,133.2c1.5,11.1,4,18.2,4,18.2l19.7,44.3
		l13.9,31.2c7.4-2.4,14-2.8,19.6-2.3c3,0.3,5.8,0.8,8.3,1.3c1.7,0.1,1.7,0.1,1.7,0.1"/>
	<path class="st1" d="M218.6,135.2c0,0,4.9-46.7,43.8-33.7"/>
	<path class="st1" d="M255.1,460c-7.2,6.6-10.3,17.6-9.8,28.1c0.9,18.9,16.9,33.6,35.9,32.7l4.4,0"/>
	<path class="st1" d="M283.8,533.8c-0.2,0.1-0.4,0.2-0.4,0.2c-64-28.5-68.6-78.1-65.4-105.7c1.4-12.1,4.3-20,4.3-20l22.6-50.6
		l11.1-24.9c7.4,2.4,14,2.8,19.6,2.3c3-0.3,5.8-0.8,8.3-1.3l1.7-0.1"/>
	<path class="st1" d="M218.6,424.5c0,0,4.9,46.7,43.8,33.7"/>
	<path class="st1" d="M166.3,420.7c0.9,9.7-3.9,21.5-11.3,29c-13.3,13.5-35,13.7-48.5,0.4s-13.7-35-0.4-48.5
		c7.4-7.6,17.5-12.7,27.3-12"/>
	<path class="st1" d="M255.2,330.6c0,0-8-3.3-16.4-10.8c-4.2-3.7-8.4-8.9-11.6-15.9l-78.2,26.7c0,0-83.1,34.9-50.5,130.3
		c0,0,26.4,7.3,55.3,3.3c29-3.9,60.6-19.1,71.3-50.2C247.2,349.5,255.2,330.6,255.2,330.6z"/>
	<path class="st1" d="M134.6,338.8c0,0-30.9,35.3,5.1,55"/>
	<path class="st1" d="M220.3,423c0,0-34.8,31.5-55.1-4"/>
	<path class="st1" d="M285.5,333.8l-11.1,0.4c-29.5,0-53.4-23.9-53.4-53.4c0-29.5,23.9-53.4,53.4-53.4l11.1,0.8"/>
	<line class="st1" x1="285.5" y1="25.7" x2="283.4" y2="25.7"/>
	<line class="st1" x1="283.4" y1="534" x2="285.5" y2="534"/>
</g>
</svg>
