<svg id="noun-euro-2328317" xmlns="http://www.w3.org/2000/svg" width="17.015" height="19.959" viewBox="0 0 17.015 19.959">
  <path id="Pfad_188" data-name="Pfad 188" d="M139.313,28.452a.463.463,0,0,0-.652.021,4.987,4.987,0,0,1-3.512,1.514,5.378,5.378,0,0,1-4.627-3.007h4.8a.476.476,0,0,0,.484-.484v-1.64a.476.476,0,0,0-.484-.484h-5.637a6.966,6.966,0,0,1-.042-.925,7.644,7.644,0,0,1,.063-.946h5.615a.476.476,0,0,0,.484-.484v-1.64a.476.476,0,0,0-.484-.484h-4.8a5.393,5.393,0,0,1,4.627-3.007,4.974,4.974,0,0,1,3.512,1.535.464.464,0,0,0,.652.021l1.83-1.683a.524.524,0,0,0,.168-.358.572.572,0,0,0-.126-.358,8.426,8.426,0,0,0-6.015-2.608,9.09,9.09,0,0,0-8.35,6.436H124.8a.476.476,0,0,0-.484.484V22a.476.476,0,0,0,.484.484h1.472c-.021.337-.042.652-.042.946s.021.61.042.925H124.8a.476.476,0,0,0-.484.484v1.64a.476.476,0,0,0,.484.484h2.019a9.09,9.09,0,0,0,8.35,6.436,8.39,8.39,0,0,0,6.015-2.608.508.508,0,0,0,.147-.358.518.518,0,0,0-.168-.358Z" transform="translate(-124.318 -13.435)" fill="#8d634b"/>
</svg>
