<?xml version="1.0" encoding="utf-8"?>
<!-- Generator: Adobe Illustrator 26.0.2, SVG Export Plug-In . SVG Version: 6.00 Build 0)  -->
<svg version="1.1" id="Ebene_1" xmlns="http://www.w3.org/2000/svg" xmlns:xlink="http://www.w3.org/1999/xlink" x="0px" y="0px"
	 viewBox="0 0 1749.3 1781.6" style="enable-background:new 0 0 1749.3 1781.6;" xml:space="preserve">
<style type="text/css">
	.st0{fill:none;stroke:#E8E0DB;stroke-width:10;stroke-miterlimit:10;}
	.st1{fill:none;stroke:#E8E0DB;stroke-width:20;stroke-miterlimit:10;}
	.st2{fill:none;stroke:#E8E0DB;stroke-width:30;stroke-miterlimit:10;}
</style>
<g>
	<path class="st0" d="M1067.5,1019.7l224.4,80.5c0,0,135.7,62.1,4.4,154.8l8.6,28.6l-19.6,19.9l-32.4-6.9c0,0-84.2,137.6-158.3-18.6
		l-74.9-210c0,0,21-13.9,25.7-20C1067.5,1019.7,1067.5,1019.7,1067.5,1019.7z"/>
	<path class="st0" d="M1108.9,847.2l211.6-109.7c0,0,137.9-57.2,116.5,102.1l26.9,13.1l1.3,27.9l-27.1,19
		c0,0,43.6,155.3-121.4,103.3L1112,915c0,0,4.1-24.8,2.8-32.5C1108.9,847.2,1108.9,847.2,1108.9,847.2z"/>
	<path class="st0" d="M640.4,847.2L428.7,737.5c0,0-137.9-57.2-116.5,102.1l-26.9,13.1l-1.3,27.9l27.1,19
		c0,0-43.6,155.3,121.4,103.3l204.8-88c0,0-4.1-24.8-2.8-32.5C640.4,847.2,640.4,847.2,640.4,847.2z"/>
	<path class="st0" d="M676.9,1019.7l-224.4,80.5c0,0-135.7,62.1-4.4,154.8l-8.6,28.6l19.6,19.9l32.4-6.9c0,0,84.2,137.6,158.3-18.6
		l74.9-210c0,0-21-13.9-25.7-20C676.9,1019.7,676.9,1019.7,676.9,1019.7z"/>
	<path class="st0" d="M916.4,649l99.8-216.5c0,0,50.7-140.4-107.4-111.6l-14.4-26.2h-27.9l-17.8,27.9c0,0-157.2-36.4-97.6,126
		l97.4,200.5c0,0,24.6-5.3,32.3-4.3C916.4,649,916.4,649,916.4,649z"/>
	<path class="st0" d="M1069.5,746.9l224.4-80.5c0,0,135.7-62.1,4.4-154.8l8.6-28.6l-19.6-19.9l-32.4,6.9c0,0-84.2-137.6-158.3,18.6
		l-74.9,210c0,0,21,13.9,25.7,20C1069.5,746.9,1069.5,746.9,1069.5,746.9z"/>
	<path class="st0" d="M677.9,742.9l-224.4-80.5c0,0-135.7-62.1-4.4-154.8l-8.6-28.6l19.6-19.9l32.4,6.9c0,0,84.2-137.6,158.3,18.6
		l74.9,210c0,0-21,13.9-25.7,20C677.9,742.9,677.9,742.9,677.9,742.9z"/>
	<path class="st0" d="M911.4,1132.6l99.8,216.5c0,0,50.7,140.4-107.4,111.6l-14.4,26.2h-27.9l-17.8-27.9c0,0-157.2,36.4-97.6-126
		l97.4-200.5c0,0,24.6,5.3,32.3,4.3C911.4,1132.6,911.4,1132.6,911.4,1132.6z"/>
</g>
<g>
	<circle class="st1" cx="186.8" cy="1186.3" r="79.7"/>
	<circle class="st1" cx="568.3" cy="1583" r="79.7"/>
	<circle class="st1" cx="1155.6" cy="1583" r="79.7"/>
	<circle class="st1" cx="1564.1" cy="1170.4" r="79.7"/>
	<circle class="st1" cx="1564.1" cy="595.7" r="79.7"/>
	<path class="st1" d="M935.6,1495.3c25,21.2,41.3,60.9,41.3,96.2c0,63.7-51.7,115.4-115.4,115.4s-115.4-51.7-115.4-115.4
		c0-35.6,12-71.8,37.4-93"/>
	<path class="st1" d="M936.5,1069.7c0,0-26.9,11-64.9,12.8c-18.8,0.9-41-1.6-65.4-10.8l-124.8,248.3c0,0-117.1,279.4,185.9,431.6
		c0,0,80.4-44.6,140.7-122.3c60.3-77.8,100.4-188.7,52.8-288.3C962,1133.9,936.5,1069.7,936.5,1069.7z"/>
	<path class="st1" d="M666.7,1373.5c0,0,9.2,157.5,141.7,120"/>
	<path class="st1" d="M1070.5,1373.5c0,0-9.2,157.5-141.7,120"/>
	<path class="st1" d="M1343.2,1256.6c32.6-3,72.4,13.2,97.6,37.9c45.5,44.6,46.1,117.7,1.5,163.2c-44.6,45.5-117.7,46.1-163.2,1.5
		c-25.4-24.9-42.8-58.9-40.2-91.8"/>
	<path class="st1" d="M1040.1,957.8c0,0-11,26.9-36.4,55.2c-12.5,14-29.8,28.1-53.5,39.1L1040,1315c0,0,117.4,279.3,438.2,169.7
		c0,0,24.5-88.7,11.3-186.1c-13.3-97.5-64.4-203.8-168.7-239.6C1103.9,984.6,1040.1,957.8,1040.1,957.8z"/>
	<path class="st1" d="M1068,1363.1c0,0,118.8,103.8,184.9-17"/>
	<path class="st1" d="M1350.8,1075c0,0,106,116.9-13.6,185.2"/>
	<path class="st1" d="M1470.2,806.3c20-25.9,58.9-44.1,94.2-45.8c63.6-2.9,117.6,46.3,120.6,109.9c2.9,63.6-46.3,117.6-109.9,120.6
		c-35.6,1.6-72.3-8.7-94.6-33"/>
	<path class="st1" d="M1044.9,825.1c0,0,12.2,26.4,15.7,64.2c1.7,18.7,0.3,41-7.8,65.8l253.8,113.1c0,0,284.6,104.1,422.5-205.6
		c0,0-48.3-78.3-128.7-134.9c-80.5-56.6-193.2-91.5-290.4-39.4C1108,796.6,1044.9,825.1,1044.9,825.1z"/>
	<path class="st1" d="M1360.9,1080.5c0,0,156.9-16.4,113.3-147.1"/>
	<path class="st1" d="M1342.3,677.2c0,0,157.8,1.9,126.4,136"/>
	<path class="st1" d="M279.2,806.3c-20-25.9-58.9-44.1-94.2-45.8c-63.6-2.9-117.6,46.3-120.6,109.9
		c-2.9,63.6,46.3,117.6,109.9,120.6c35.6,1.6,72.3-8.7,94.6-33"/>
	<path class="st1" d="M704.4,825.1c0,0-12.2,26.4-15.7,64.2c-1.7,18.7-0.3,41,7.8,65.8l-253.8,113.1c0,0-284.6,104.1-422.5-205.6
		c0,0,48.3-78.3,128.7-134.9c80.5-56.6,193.2-91.5,290.4-39.4C641.4,796.6,704.4,825.1,704.4,825.1z"/>
	<path class="st1" d="M388.4,1080.5c0,0-156.9-16.4-113.3-147.1"/>
	<path class="st1" d="M407.1,677.2c0,0-157.8,1.9-126.4,136"/>
	<path class="st1" d="M401.2,1256.6c-32.6-3-72.4,13.2-97.6,37.9c-45.5,44.6-46.1,117.7-1.5,163.2s117.7,46.1,163.2,1.5
		c25.4-24.9,42.8-58.9,40.2-91.8"/>
	<path class="st1" d="M704.2,957.8c0,0,11,26.9,36.4,55.2c12.5,14,29.8,28.1,53.5,39.1L704.4,1315c0,0-117.4,279.3-438.2,169.7
		c0,0-24.5-88.7-11.3-186.1c13.3-97.5,64.4-203.8,168.7-239.6C640.5,984.6,704.2,957.8,704.2,957.8z"/>
	<path class="st1" d="M676.4,1363.1c0,0-118.8,103.8-184.9-17"/>
	<path class="st1" d="M393.6,1075c0,0-106,116.9,13.6,185.2"/>
	<path class="st1" d="M940.6,286.3c25-21.2,41.3-60.9,41.3-96.2c0-63.7-51.7-115.4-115.4-115.4s-115.4,51.7-115.4,115.4
		c0,35.6,12,71.8,37.4,93"/>
	<path class="st1" d="M941.5,711.9c0,0-26.9-11-64.9-12.8c-18.8-0.9-41,1.6-65.4,10.8L686.5,461.8c0,0-117.1-279.4,185.9-431.6
		c0,0,80.4,44.6,140.7,122.3c60.3,77.8,100.4,188.7,52.8,288.3C967,647.7,941.5,711.9,941.5,711.9z"/>
	<path class="st1" d="M671.7,408.1c0,0,9.2-157.5,141.7-120"/>
	<path class="st1" d="M1075.5,408.1c0,0-9.2-157.5-141.7-120"/>
	<path class="st1" d="M1345.2,510c32.6,3,72.4-13.2,97.6-37.9c45.5-44.6,46.1-117.7,1.5-163.2c-44.6-45.5-117.7-46.1-163.2-1.5
		c-25.4,24.9-42.8,58.9-40.2,91.8"/>
	<path class="st1" d="M1042.1,808.8c0,0-11-26.9-36.4-55.2c-12.5-14-29.8-28.1-53.5-39.1l89.8-262.9c0,0,117.4-279.3,438.2-169.7
		c0,0,24.5,88.7,11.3,186.1c-13.3,97.5-64.4,203.8-168.7,239.6C1105.9,782,1042.1,808.8,1042.1,808.8z"/>
	<path class="st1" d="M1070,403.5c0,0,118.8-103.8,184.9,17"/>
	<path class="st1" d="M1352.8,691.6c0,0,106-116.9-13.6-185.2"/>
	<path class="st1" d="M402.2,506c-32.6,3-72.4-13.2-97.6-37.9c-45.5-44.6-46.1-117.7-1.5-163.2s117.7-46.1,163.2-1.5
		c25.4,24.9,42.8,58.9,40.2,91.8"/>
	<path class="st1" d="M705.2,804.8c0,0,11-26.9,36.4-55.2c12.5-14,29.8-28.1,53.5-39.1l-89.8-262.9c0,0-117.4-279.3-438.2-169.7
		c0,0-24.5,88.7-11.3,186.1c13.3,97.5,64.4,203.8,168.7,239.6C641.5,778,705.2,804.8,705.2,804.8z"/>
	<path class="st1" d="M677.4,399.5c0,0-118.8-103.8-184.9,17"/>
	<path class="st1" d="M394.6,687.6c0,0-106-116.9,13.6-185.2"/>
	<circle class="st2" cx="871.5" cy="893.2" r="179.6"/>
	<circle class="st1" cx="1155.6" cy="207" r="79.7"/>
	<circle class="st1" cx="589" cy="224.2" r="79.7"/>
	<circle class="st1" cx="186.8" cy="608.3" r="79.7"/>
</g>
</svg>
