<svg id="Gruppe_164" data-name="Gruppe 164" xmlns="http://www.w3.org/2000/svg" width="90.675" height="73.027" viewBox="0 0 90.675 73.027">
  <path id="Pfad_37" data-name="Pfad 37" d="M16.75,74.132V31.75C16.7,14.111,30.4,3.934,32.306,3c1.6.719,11.818,8.212,14.768,21.7a33.379,33.379,0,0,1,.741,7.054c0,9.216-.14,36.938-.168,42.373Z" transform="translate(-15.788 -2.066)" fill="#e8e0db"/>
  <path id="Pfad_38" data-name="Pfad 38" d="M32.238,4.026C34.983,5.66,46.795,15.39,46.795,31.721c0,8.777-.121,34.324-.159,41.439H17.6V31.711C17.569,15.539,29.474,5.735,32.238,4.026M32.228,2Zm0,0C30.921,2,15.7,12.915,15.72,31.683V75H48.475s.187-32.97.187-43.279C48.662,12.617,33.526,2,32.228,2" transform="translate(-15.72 -2)" fill="#8d634b"/>
  <path id="Pfad_39" data-name="Pfad 39" d="M107.708,74.961l-58.778.121.121-44.072,58.657,8.1Z" transform="translate(-17.034 -2.055)" fill="#8d634b"/>
</svg>
