<svg xmlns="http://www.w3.org/2000/svg" xmlns:xlink="http://www.w3.org/1999/xlink" width="267.514" height="276.023" viewBox="0 0 267.514 276.023">
  <defs>
    <clipPath id="clip-path">
      <rect id="Rechteck_179" data-name="Rechteck 179" width="267.514" height="276.023" fill="none" stroke="#e8e0db" stroke-width="7"/>
    </clipPath>
  </defs>
  <g id="Gruppe_265" data-name="Gruppe 265" opacity="0.2">
    <g id="Gruppe_264" data-name="Gruppe 264" clip-path="url(#clip-path)">
      <circle id="Ellipse_48" data-name="Ellipse 48" cx="24.112" cy="24.112" r="24.112" transform="translate(66.401 197.503)" fill="none" stroke="#e8e0db" stroke-miterlimit="10" stroke-width="7"/>
      <circle id="Ellipse_49" data-name="Ellipse 49" cx="24.112" cy="24.112" r="24.112" transform="translate(190.016 72.648)" fill="none" stroke="#e8e0db" stroke-miterlimit="10" stroke-width="7"/>
      <path id="Pfad_380" data-name="Pfad 380" d="M27.407,644.59c7.565,6.4,12.514,18.433,12.514,29.121A34.916,34.916,0,0,1,5.005,708.628" transform="translate(-3.49 -449.508)" fill="none" stroke="#e8e0db" stroke-miterlimit="10" stroke-width="7"/>
      <path id="Pfad_381" data-name="Pfad 381" d="M5.01,222.865c1.044.021,2.055,0,3.039-.042a65.33,65.33,0,0,0,19.642-3.859s5.387,13.571,24.6,54.549l.006.018c3.786,8.069,8.111,17.2,13.029,27.507a64.045,64.045,0,0,1,3,7.433q.227.672.436,1.347v0c8.559,27.707-2.933,57.179-19.427,78.455C31.1,411.794,6.759,425.3,6.759,425.3q-.881-.445-1.749-.893" transform="translate(-3.494 -152.696)" fill="none" stroke="#e8e0db" stroke-miterlimit="10" stroke-width="7"/>
      <path id="Pfad_382" data-name="Pfad 382" d="M115.123,522.793s-2.775,47.674-42.882,36.323" transform="translate(-50.378 -364.573)" fill="none" stroke="#e8e0db" stroke-miterlimit="10" stroke-width="7"/>
      <path id="Pfad_383" data-name="Pfad 383" d="M413.824,405.639c9.87-.912,21.92,3.983,29.548,11.471a34.916,34.916,0,0,1-48.921,49.833c-7.689-7.548-12.967-17.828-12.164-27.789" transform="translate(-266.534 -282.799)" fill="none" stroke="#e8e0db" stroke-miterlimit="10" stroke-width="7"/>
      <path id="Pfad_384" data-name="Pfad 384" d="M120.915,107.059a65.265,65.265,0,0,1-11.006,16.719,48.947,48.947,0,0,1-16.2,11.825l27.163,79.579s35.519,84.543,132.616,51.36c0,0,7.42-26.83,3.408-56.316-4.016-29.515-19.48-61.691-51.052-72.525C140.2,115.174,120.915,107.059,120.915,107.059Z" transform="translate(-65.351 -74.658)" fill="none" stroke="#e8e0db" stroke-miterlimit="10" stroke-width="7"/>
      <path id="Pfad_385" data-name="Pfad 385" d="M211.421,500.539s35.964,31.418,55.961-5.154" transform="translate(-147.436 -345.459)" fill="none" stroke="#e8e0db" stroke-miterlimit="10" stroke-width="7"/>
      <path id="Pfad_386" data-name="Pfad 386" d="M484.775,224.3s32.077,35.378-4.12,56.047" transform="translate(-335.187 -156.415)" fill="none" stroke="#e8e0db" stroke-miterlimit="10" stroke-width="7"/>
      <path id="Pfad_387" data-name="Pfad 387" d="M685.3,5.584a34.921,34.921,0,0,1-32.8,40.79c-10.765.5-21.89-2.627-28.642-10" transform="translate(-435.052 -3.894)" fill="none" stroke="#e8e0db" stroke-miterlimit="10" stroke-width="7"/>
      <path id="Pfad_388" data-name="Pfad 388" d="M400.043,5.444a6.311,6.311,0,0,1,.99,2.057c-29.662,66.591-81.72,69.978-109.379,66.352h0c-1.347-.176-2.633-.369-3.859-.572a89.563,89.563,0,0,1-14.633-3.544l-45.07-20.1-.009,0L196.36,35.492a48.955,48.955,0,0,0,2.355-19.914,70.071,70.071,0,0,0-1.68-10" transform="translate(-136.933 -3.886)" fill="none" stroke="#e8e0db" stroke-miterlimit="10" stroke-width="7"/>
      <path id="Pfad_389" data-name="Pfad 389" d="M504.385,127.246s47.495-4.977,34.3-44.516" transform="translate(-351.736 -57.692)" fill="none" stroke="#e8e0db" stroke-miterlimit="10" stroke-width="7"/>
      <path id="Pfad_390" data-name="Pfad 390" d="M61.25,5.584A54.609,54.609,0,0,1,62.4,16.761a54.215,54.215,0,0,1-5.439,23.733s0,0,0,.006-.009.015-.012.024-.006.009-.009.015A54.6,54.6,0,0,1,32.091,65.529a54.157,54.157,0,0,1-24.057,5.6c-1.014,0-2.025-.027-3.023-.082" transform="translate(-3.494 -3.894)" fill="none" stroke="#e8e0db" stroke-miterlimit="10" stroke-width="7"/>
      <path id="Pfad_392" data-name="Pfad 392" d="M0,0" transform="translate(57.757 1.69)" fill="#fff" stroke="#e8e0db" stroke-width="7"/>
      <path id="Pfad_391" data-name="Pfad 391" d="M0,0" transform="translate(250.248 1.69)" fill="#fff" stroke="#e8e0db" stroke-width="7"/>
    </g>
  </g>
</svg>
