<svg xmlns="http://www.w3.org/2000/svg" width="42.28" height="32.951" viewBox="0 0 42.28 32.951">
  <g id="Gruppe_337" data-name="Gruppe 337" transform="translate(-6 -7.264)">
    <path id="Pfad_247" data-name="Pfad 247" d="M7-12.877H1.547v-3.088H7v-5.5h3.088v5.5h5.456v3.088H10.091v5.428H7Z" transform="translate(32.733 28.727)" fill="#fff"/>
    <path id="Pfad_728" data-name="Pfad 728" d="M11.591,0,10.452-3.738H4.727L3.588,0H0L5.543-15.77H9.614L15.179,0ZM9.657-6.531q-1.579-5.081-1.778-5.747t-.285-1.053q-.354,1.375-2.03,6.8ZM24.524,0l-.634-1.633H23.8A4.839,4.839,0,0,1,22.1-.188a5.5,5.5,0,0,1-2.283.4A3.691,3.691,0,0,1,17.1-.773,3.8,3.8,0,0,1,16.1-3.588a3.169,3.169,0,0,1,1.337-2.82,7.75,7.75,0,0,1,4.034-1l2.084-.064V-8a1.633,1.633,0,0,0-1.869-1.826,8.518,8.518,0,0,0-3.384.87L17.22-11.172a9.763,9.763,0,0,1,4.6-1.085A5.727,5.727,0,0,1,25.523-11.2,3.891,3.891,0,0,1,26.813-8V0Zm-.967-5.564-1.268.043a4.059,4.059,0,0,0-2.127.516,1.619,1.619,0,0,0-.7,1.439q0,1.386,1.59,1.386a2.518,2.518,0,0,0,1.821-.655,2.3,2.3,0,0,0,.682-1.74Z" transform="translate(6 40)" fill="#fff"/>
  </g>
</svg>
