<svg xmlns="http://www.w3.org/2000/svg" width="53.529" height="41.438" viewBox="0 0 53.529 41.438">
  <path id="gestaltungselement" d="M110.78-28.534a11.312,11.312,0,0,1-7.389-3.865,11.128,11.128,0,0,1-2.921-7.551,11.126,11.126,0,0,1,2.835-7.73,9.193,9.193,0,0,1,7.132-3.146,10.684,10.684,0,0,1,8.334,4.09,14.574,14.574,0,0,1,3.523,9.843q0,17.618-18.645,27.506L100.3-15.859Q110.78-21.253,110.78-28.534Zm-31.447,0A11.382,11.382,0,0,1,71.857-32.4a11.128,11.128,0,0,1-2.921-7.551,11.03,11.03,0,0,1,2.878-7.73,9.324,9.324,0,0,1,7.174-3.146,10.561,10.561,0,0,1,8.291,4.09,14.683,14.683,0,0,1,3.48,9.843q0,17.618-18.645,27.506l-3.351-6.472Q79.333-21.253,79.333-28.534Z" transform="translate(-68.764 50.826)" fill="#8d634b"/>
</svg>
