<svg xmlns="http://www.w3.org/2000/svg" width="18" height="18" viewBox="0 0 18 18">
  <g id="Web_icon" transform="translate(-40 -550)">
    <circle id="Ellipse_47" data-name="Ellipse 47" cx="9" cy="9" r="9" transform="translate(40 550)" fill="#383535"/>
    <path id="md-globe" d="M56.78,48a8.78,8.78,0,1,0,8.78,8.78A8.78,8.78,0,0,0,56.78,48Zm-.91,16.251A7.526,7.526,0,0,1,51.052,51.9a8.339,8.339,0,0,1,.085,1.02,3.255,3.255,0,0,0,.42,2.48,4.093,4.093,0,0,1,.4,1.185c.109.374.545.57.845.8.606.465,1.186,1,1.829,1.414.424.27.689.4.565.922a3.271,3.271,0,0,1-.343,1.044,2.115,2.115,0,0,0,.353.945c.316.316.631.607.976.892C56.712,63.042,56.125,63.616,55.87,64.251ZM62.1,62.1a7.472,7.472,0,0,1-3.907,2.072,3.122,3.122,0,0,1,.924-1.239,3.144,3.144,0,0,0,.831-1.028,7.141,7.141,0,0,1,.573-.98c.3-.46-.735-1.154-1.07-1.3a11.032,11.032,0,0,1-1.991-1.24c-.477-.336-1.446.175-1.985-.06a10.385,10.385,0,0,1-1.987-1.365c-.662-.5-.63-1.08-.63-1.815.518.019,1.256-.143,1.6.273.109.132.482.719.732.51.2-.171-.151-.855-.22-1.016-.211-.494.481-.687.836-1.023.463-.437,1.455-1.124,1.377-1.437s-.993-1.2-1.53-1.063c-.08.021-.789.764-.926.88q.005-.364.011-.728c0-.153-.286-.31-.272-.409.034-.25.729-.7.9-.9-.121-.076-.534-.431-.659-.379-.3.126-.645.213-.948.339a1.927,1.927,0,0,0-.028-.3,7.454,7.454,0,0,1,1.913-.555l.594.239.42.5.419.432.366.118.582-.549-.15-.392v-.352a7.443,7.443,0,0,1,3.188,1.258c-.17.015-.357.04-.568.067a1.892,1.892,0,0,0-.294-.111c.276.593.563,1.177.855,1.762.312.625,1,1.295,1.126,1.954.143.777.044,1.483.122,2.4a4.1,4.1,0,0,0,.993,1.881,1.988,1.988,0,0,0,.776.094A7.479,7.479,0,0,1,62.1,62.1Z" transform="translate(-7.779 502.22)" fill="#fff"/>
    <g id="Ellipse_46" data-name="Ellipse 46" transform="translate(40 550)" fill="none" stroke="#383535" stroke-width="1.5">
      <circle cx="9" cy="9" r="9" stroke="none"/>
      <circle cx="9" cy="9" r="8.25" fill="none"/>
    </g>
  </g>
</svg>
