<svg xmlns="http://www.w3.org/2000/svg" width="730.179" height="1166.694" viewBox="0 0 730.179 1166.694">
  <g id="Gruppe_336" data-name="Gruppe 336" transform="translate(-127.514 -989.807)">
    <g id="Gruppe_199" data-name="Gruppe 199" transform="translate(0 24)">
      <path id="Pfad_242" data-name="Pfad 242" d="M1715.555,17309c-149.6-153.293,540.127-426.473,622.72-674.754s-512.3-323.708-512.3-323.708-142.428-136.032-207.927-160.831" transform="translate(-1490 -15182.499)" fill="none" stroke="#e8e0db" stroke-width="3" stroke-dasharray="17"/>
      <g id="noun-steps-87667" transform="translate(868.931 1235.246) rotate(146)" opacity="0.5">
        <path id="Pfad_237" data-name="Pfad 237" d="M220.47,396.308c-3.933,1.055-7.72-.325-6.5,4.217s5.394,7.368,9.327,6.313,6.133-5.592,4.915-10.134-3.807-1.452-7.74-.4Z" transform="translate(-50.001 -298.951)" fill="#e8e0db"/>
        <path id="Pfad_238" data-name="Pfad 238" d="M169.706,186.336c7.392-1.983,5.472-4.478,6.287-9.427.764-4.64-5.806-18.869-13.335-16.849s-6.045,17.586-3.112,21.261c3.25,4.073,2.767,7,10.16,5.014Z" transform="translate(0 -91.785)" fill="#e8e0db"/>
        <path id="Pfad_239" data-name="Pfad 239" d="M367.019,292.438c-3.933-1.055-6.521-4.145-7.739.4s.982,9.079,4.915,10.134,8.108-1.771,9.327-6.313-2.57-3.162-6.5-4.217Z" transform="translate(-178.32 -207.162)" fill="#e8e0db"/>
        <path id="Pfad_240" data-name="Pfad 240" d="M393.764,56.195c-7.529-2.019-14.1,12.209-13.335,16.849.815,4.949-1.105,7.443,6.287,9.427s6.91-.941,10.161-5.014c2.932-3.676,4.416-19.241-3.113-21.26Z" transform="translate(-197.252)" fill="#e8e0db"/>
      </g>
      <g id="noun-steps-87667-2" data-name="noun-steps-87667" transform="matrix(-0.695, -0.719, 0.719, -0.695, 686.402, 1835.684)" opacity="0.5">
        <path id="Pfad_237-2" data-name="Pfad 237" d="M220.47,396.308c-3.933,1.055-7.72-.325-6.5,4.217s5.394,7.368,9.327,6.313,6.133-5.592,4.915-10.134-3.807-1.452-7.74-.4Z" transform="translate(-50.001 -298.951)" fill="#e8e0db"/>
        <path id="Pfad_238-2" data-name="Pfad 238" d="M169.706,186.336c7.392-1.983,5.472-4.478,6.287-9.427.764-4.64-5.806-18.869-13.335-16.849s-6.045,17.586-3.112,21.261c3.25,4.073,2.767,7,10.16,5.014Z" transform="translate(0 -91.785)" fill="#e8e0db"/>
        <path id="Pfad_239-2" data-name="Pfad 239" d="M367.019,292.438c-3.933-1.055-6.521-4.145-7.739.4s.982,9.079,4.915,10.134,8.108-1.771,9.327-6.313-2.57-3.162-6.5-4.217Z" transform="translate(-178.32 -207.162)" fill="#e8e0db"/>
        <path id="Pfad_240-2" data-name="Pfad 240" d="M393.764,56.195c-7.529-2.019-14.1,12.209-13.335,16.849.815,4.949-1.105,7.443,6.287,9.427s6.91-.941,10.161-5.014c2.932-3.676,4.416-19.241-3.113-21.26Z" transform="translate(-197.252)" fill="#e8e0db"/>
      </g>
      <g id="noun-steps-87667-3" data-name="noun-steps-87667" transform="matrix(-0.695, 0.719, -0.719, -0.695, 428.451, 2026.084)" opacity="0.5">
        <path id="Pfad_237-3" data-name="Pfad 237" d="M220.47,396.308c-3.933,1.055-7.72-.325-6.5,4.217s5.394,7.368,9.327,6.313,6.133-5.592,4.915-10.134-3.807-1.452-7.74-.4Z" transform="translate(-50.001 -298.951)" fill="#e8e0db"/>
        <path id="Pfad_238-3" data-name="Pfad 238" d="M169.706,186.336c7.392-1.983,5.472-4.478,6.287-9.427.764-4.64-5.806-18.869-13.335-16.849s-6.045,17.586-3.112,21.261c3.25,4.073,2.767,7,10.16,5.014Z" transform="translate(0 -91.785)" fill="#e8e0db"/>
        <path id="Pfad_239-3" data-name="Pfad 239" d="M367.019,292.438c-3.933-1.055-6.521-4.145-7.739.4s.982,9.079,4.915,10.134,8.108-1.771,9.327-6.313-2.57-3.162-6.5-4.217Z" transform="translate(-178.32 -207.162)" fill="#e8e0db"/>
        <path id="Pfad_240-3" data-name="Pfad 240" d="M393.764,56.195c-7.529-2.019-14.1,12.209-13.335,16.849.815,4.949-1.105,7.443,6.287,9.427s6.91-.941,10.161-5.014c2.932-3.676,4.416-19.241-3.113-21.26Z" transform="translate(-197.252)" fill="#e8e0db"/>
      </g>
    </g>
  </g>
</svg>
