<svg xmlns="http://www.w3.org/2000/svg" xmlns:xlink="http://www.w3.org/1999/xlink" width="114.664" height="218.673" viewBox="0 0 114.664 218.673">
  <defs>
    <clipPath id="clip-path">
      <rect id="Rechteck_46" data-name="Rechteck 46" width="218.673" height="114.664" fill="none" stroke="#e8e0db" stroke-width="5"/>
    </clipPath>
  </defs>
  <g id="Gruppe_62" data-name="Gruppe 62" transform="translate(0 218.673) rotate(-90)" opacity="0.4">
    <g id="Gruppe_60" data-name="Gruppe 60" clip-path="url(#clip-path)">
      <ellipse id="Ellipse_31" data-name="Ellipse 31" cx="10.061" cy="10.061" rx="10.061" ry="10.061" transform="translate(12.41 62.732)" fill="none" stroke="#e8e0db" stroke-miterlimit="10" stroke-width="5"/>
      <ellipse id="Ellipse_32" data-name="Ellipse 32" cx="10.061" cy="10.061" rx="10.061" ry="10.061" transform="translate(60.591 12.641)" fill="none" stroke="#e8e0db" stroke-miterlimit="10" stroke-width="5"/>
      <ellipse id="Ellipse_33" data-name="Ellipse 33" cx="10.061" cy="10.061" rx="10.061" ry="10.061" transform="translate(134.756 12.641)" fill="none" stroke="#e8e0db" stroke-miterlimit="10" stroke-width="5"/>
      <ellipse id="Ellipse_34" data-name="Ellipse 34" cx="10.061" cy="10.061" rx="10.061" ry="10.061" transform="translate(186.337 64.739)" fill="none" stroke="#e8e0db" stroke-miterlimit="10" stroke-width="5"/>
      <path id="Pfad_165" data-name="Pfad 165" d="M761.243,667.265c3.157-2.672,5.222-7.691,5.222-12.151a14.569,14.569,0,0,0-29.139,0c0,4.5,1.518,9.072,4.719,11.745" transform="translate(-644.214 -633.491)" fill="none" stroke="#e8e0db" stroke-miterlimit="10" stroke-width="5"/>
      <path id="Pfad_166" data-name="Pfad 166" d="M685.358,301.014a27.237,27.237,0,0,0-8.2-1.61,20.427,20.427,0,0,0-8.256,1.366l-15.756-31.35s-14.791-35.289,23.472-54.5a65.61,65.61,0,0,1,17.765,15.447c7.615,9.824,12.675,23.834,6.672,36.4C688.578,292.9,685.358,301.014,685.358,301.014Z" transform="translate(-568.212 -213.49)" fill="none" stroke="#e8e0db" stroke-miterlimit="10" stroke-width="5"/>
      <path id="Pfad_167" data-name="Pfad 167" d="M657.869,534.633s1.158-19.893,17.893-15.157" transform="translate(-574.791 -485.478)" fill="none" stroke="#e8e0db" stroke-miterlimit="10" stroke-width="5"/>
      <path id="Pfad_168" data-name="Pfad 168" d="M937.824,534.633s-1.158-19.893-17.893-15.157" transform="translate(-803.759 -485.478)" fill="none" stroke="#e8e0db" stroke-miterlimit="10" stroke-width="5"/>
      <path id="Pfad_169" data-name="Pfad 169" d="M1243.09,431.237c4.118.38,9.146-1.662,12.329-4.786a14.569,14.569,0,0,0-20.413-20.794c-3.208,3.15-5.411,7.439-5.075,11.6" transform="translate(-1074.581 -367.319)" fill="none" stroke="#e8e0db" stroke-miterlimit="10" stroke-width="5"/>
      <path id="Pfad_170" data-name="Pfad 170" d="M952.753,172.781a27.236,27.236,0,0,0-4.592-6.976,20.424,20.424,0,0,0-6.759-4.934l11.334-33.206s14.821-35.277,55.336-21.431a65.611,65.611,0,0,1,1.422,23.5c-1.676,12.316-8.128,25.742-21.3,30.262C960.8,169.395,952.753,172.781,952.753,172.781Z" transform="translate(-822.518 -71.126)" fill="none" stroke="#e8e0db" stroke-miterlimit="10" stroke-width="5"/>
      <path id="Pfad_171" data-name="Pfad 171" d="M1059.112,496.578s15.007-13.11,23.351,2.151" transform="translate(-925.364 -446.113)" fill="none" stroke="#e8e0db" stroke-miterlimit="10" stroke-width="5"/>
      <path id="Pfad_172" data-name="Pfad 172" d="M1330.064,243.638s13.385-14.762-1.719-23.386" transform="translate(-1160.597 -156.789)" fill="none" stroke="#e8e0db" stroke-miterlimit="10" stroke-width="5"/>
      <path id="Pfad_173" data-name="Pfad 173" d="M1471.552,5.245c2.818-3.074,7.459-4.378,11.951-4.171a14.569,14.569,0,0,1,13.88,15.228l-.124,1.854" transform="translate(-1285.719 96.375)" fill="none" stroke="#e8e0db" stroke-miterlimit="10" stroke-width="5"/>
      <path id="Pfad_174" data-name="Pfad 174" d="M1129.358,29.3c.063-.1.095-.15.095-.15-12.378-27.789-34.1-29.2-45.643-27.686a39.7,39.7,0,0,0-7.715,1.717l-18.8,8.381-13.246,5.906a20.432,20.432,0,0,1,.982,8.311,29.216,29.216,0,0,1-.551,3.521l-.061.714" transform="translate(-912.204 84.522)" fill="none" stroke="#e8e0db" stroke-miterlimit="10" stroke-width="5"/>
      <path id="Pfad_175" data-name="Pfad 175" d="M1352.075,78.685s19.818,2.077,14.313,18.575" transform="translate(-1181.33 7.467)" fill="none" stroke="#e8e0db" stroke-miterlimit="10" stroke-width="5"/>
      <path id="Pfad_176" data-name="Pfad 176" d="M81.225,5.245C78.408,2.171,73.766.866,69.275,1.074A14.569,14.569,0,0,0,55.395,16.3l-.016,1.854" transform="translate(-48.386 96.375)" fill="none" stroke="#e8e0db" stroke-miterlimit="10" stroke-width="5"/>
      <path id="Pfad_177" data-name="Pfad 177" d="M11.365,29.3c-.063-.1-.095-.15-.095-.15C23.381,1.958,44.435.019,56.149,1.365a40.59,40.59,0,0,1,8.479,1.811l21.49,9.581,10.556,4.707a20.431,20.431,0,0,0-.982,8.311,29.256,29.256,0,0,0,.551,3.521l.032.714" transform="translate(-9.847 84.522)" fill="none" stroke="#e8e0db" stroke-miterlimit="10" stroke-width="5"/>
      <path id="Pfad_178" data-name="Pfad 178" d="M273.817,78.685S254,80.762,259.5,97.26" transform="translate(-225.889 7.467)" fill="none" stroke="#e8e0db" stroke-miterlimit="10" stroke-width="5"/>
      <path id="Pfad_179" data-name="Pfad 179" d="M276.814,431.237c-4.118.38-9.147-1.662-12.329-4.786A14.569,14.569,0,0,1,284.9,405.657c3.208,3.15,5.411,7.439,5.075,11.6" transform="translate(-227.273 -367.319)" fill="none" stroke="#e8e0db" stroke-miterlimit="10" stroke-width="5"/>
      <path id="Pfad_180" data-name="Pfad 180" d="M299.37,172.781a27.233,27.233,0,0,1,4.592-6.976,20.424,20.424,0,0,1,6.759-4.934l-11.334-33.206s-14.821-35.277-55.336-21.431a65.612,65.612,0,0,0-1.422,23.5c1.676,12.316,8.128,25.742,21.3,30.262C291.323,169.395,299.37,172.781,299.37,172.781Z" transform="translate(-211.555 -71.126)" fill="none" stroke="#e8e0db" stroke-miterlimit="10" stroke-width="5"/>
      <path id="Pfad_181" data-name="Pfad 181" d="M506,496.578s-15.007-13.11-23.351,2.151" transform="translate(-421.699 -446.113)" fill="none" stroke="#e8e0db" stroke-miterlimit="10" stroke-width="5"/>
      <path id="Pfad_182" data-name="Pfad 182" d="M346.862,243.638s-13.385-14.762,1.719-23.386" transform="translate(-298.28 -156.789)" fill="none" stroke="#e8e0db" stroke-miterlimit="10" stroke-width="5"/>
      <path id="Pfad_183" data-name="Pfad 183" d="M683.217,28.464l-.169-4.725a22.686,22.686,0,0,1,45.372,0l-.332,4.725" transform="translate(-596.79 86.067)" fill="none" stroke="#e8e0db" stroke-miterlimit="10" stroke-width="5"/>
      <line id="Linie_1" data-name="Linie 1" y1="0.864" transform="translate(217.249 113.667)" fill="none" stroke="#e8e0db" stroke-miterlimit="10" stroke-width="5"/>
      <line id="Linie_2" data-name="Linie 2" y2="0.864" transform="translate(1.423 113.667)" fill="none" stroke="#e8e0db" stroke-miterlimit="10" stroke-width="5"/>
    </g>
  </g>
</svg>
