<svg xmlns="http://www.w3.org/2000/svg" width="38.664" height="40.844" viewBox="0 0 38.664 40.844">
  <g id="noun-color-2225565" transform="translate(0)">
    <path id="Pfad_294" data-name="Pfad 294" d="M109.121,317.559a10.789,10.789,0,0,1-1.623-3.86.8.8,0,0,0-.789-.658h-7.5a.781.781,0,0,0-.789.877,19.451,19.451,0,0,0,4.123,9.913.768.768,0,0,0,1.184.044l5.308-5.308a.791.791,0,0,0,.087-1.008Z" transform="translate(-98.406 -290.253)" fill="#333"/>
    <path id="Pfad_295" data-name="Pfad 295" d="M99.2,144.668h7.5a.8.8,0,0,0,.789-.658,10.065,10.065,0,0,1,1.623-3.86.8.8,0,0,0-.088-1.009l-5.307-5.351a.8.8,0,0,0-1.184.044,19.837,19.837,0,0,0-4.123,9.913.778.778,0,0,0,.79.921Z" transform="translate(-98.402 -124.438)" fill="#383535"/>
    <path id="Pfad_296" data-name="Pfad 296" d="M473.581,313.039h-7.5a.8.8,0,0,0-.789.658,10.718,10.718,0,0,1-1.579,3.86.8.8,0,0,0,.088,1.009l5.308,5.308a.8.8,0,0,0,1.184-.044,19.837,19.837,0,0,0,4.123-9.913.818.818,0,0,0-.834-.878Z" transform="translate(-435.754 -290.251)" fill="#999"/>
    <path id="Pfad_297" data-name="Pfad 297" d="M199.967,409.287a10.716,10.716,0,0,1-3.86-1.579.8.8,0,0,0-1.009.088L189.79,413.1a.8.8,0,0,0,.044,1.184,19.836,19.836,0,0,0,9.913,4.123.809.809,0,0,0,.877-.789v-7.545a.76.76,0,0,0-.658-.79Z" transform="translate(-182.606 -377.57)" fill="#666"/>
    <path id="Pfad_298" data-name="Pfad 298" d="M464.772,144.342a.8.8,0,0,0,.789.658h7.5a.781.781,0,0,0,.789-.877,19.45,19.45,0,0,0-4.123-9.913.768.768,0,0,0-1.184-.044l-5.307,5.307a.8.8,0,0,0-.088,1.009,10.788,10.788,0,0,1,1.623,3.86Z" transform="translate(-435.235 -124.77)" fill="#b2b2b2"/>
    <path id="Pfad_299" data-name="Pfad 299" d="M374.568,407.795a.8.8,0,0,0-1.009-.088,9.99,9.99,0,0,1-3.86,1.579.8.8,0,0,0-.658.789v7.5a.781.781,0,0,0,.877.789,19.45,19.45,0,0,0,9.913-4.123.768.768,0,0,0,.044-1.184Z" transform="translate(-348.43 -377.569)" fill="#7f7f7f"/>
    <path id="Pfad_300" data-name="Pfad 300" d="M283.4,27.424h.877a1.966,1.966,0,0,0,1.974-1.974,2,2,0,0,0-1.974-2.018h-1.184V16.765a2.764,2.764,0,1,0-5.527,0v6.667h-1.184a1.974,1.974,0,0,0,0,3.948h.877v7.238a8.944,8.944,0,0,0,1.842,5.439,1.535,1.535,0,0,0,2.456,0,9.04,9.04,0,0,0,1.842-5.439Zm-3.027,11.712a7.456,7.456,0,0,1-1.535-4.474V27.424h2.939v7.238A7.632,7.632,0,0,1,280.369,39.135Z" transform="translate(-261.01 -14.001)" fill="#383535"/>
  </g>
</svg>
