<svg xmlns="http://www.w3.org/2000/svg" width="18.078" height="18.078" viewBox="0 0 18.078 18.078">
  <g id="ios-print" transform="translate(-48 -48)">
    <path id="Pfad_360" data-name="Pfad 360" d="M112.7,56.691v8.691a.7.7,0,0,0,.7.7h9.734a.7.7,0,0,0,.7-.7V56.691a.7.7,0,0,0-.7-.7h-9.734A.7.7,0,0,0,112.7,56.691ZM123.82,48H112.7a.7.7,0,0,0-.7.7v.869a.174.174,0,0,0,.174.174h12.168a.174.174,0,0,0,.174-.174V48.7A.7.7,0,0,0,123.82,48Z" transform="translate(-61.219)" fill="#383535"/>
    <path id="Pfad_361" data-name="Pfad 361" d="M64.709,112h-15.3A1.391,1.391,0,0,0,48,113.36v7.579a1.428,1.428,0,0,0,1.412,1.4h.674a.349.349,0,0,0,.348-.348v-4.606a1.215,1.215,0,0,1,1.217-1.217H62.428a1.215,1.215,0,0,1,1.217,1.217V122a.349.349,0,0,0,.348.348h.717a1.39,1.39,0,0,0,1.369-1.4V113.36A1.353,1.353,0,0,0,64.709,112Z" transform="translate(0 -61.219)" fill="#383535"/>
  </g>
</svg>
