<svg xmlns="http://www.w3.org/2000/svg" width="151.474" height="121.994" viewBox="0 0 151.474 121.994">
  <g id="Gruppe_337" data-name="Gruppe 337" transform="translate(-23.57 -1.12)">
    <path id="Pfad_725" data-name="Pfad 725" d="M16.75,121.827v-70.8C16.672,21.562,39.555,4.56,42.737,3c3.12,1.4,25.893,18.25,25.909,48.027,0,15.4-.234,61.706-.281,70.785Z" transform="translate(8.427 -0.321)" fill="#fff"/>
    <path id="Pfad_726" data-name="Pfad 726" d="M43.313,5.385C47.9,8.114,67.631,24.368,67.631,51.649c0,14.662-.2,57.339-.265,69.225H18.855V51.633C18.808,24.617,38.7,8.239,43.313,5.385M43.3,2Zm0,0C41.114,2,15.689,20.234,15.72,51.587v72.36H70.438s.312-55.077.312-72.3C70.75,19.735,45.466,2,43.3,2" transform="translate(7.85 -0.88)" fill="#8d634b"/>
    <path id="Pfad_727" data-name="Pfad 727" d="M147.121,104.431l-98.191.2.2-73.623,97.988,13.524Z" transform="translate(27.924 18.48)" fill="#8d634b"/>
  </g>
</svg>
