<svg xmlns="http://www.w3.org/2000/svg" xmlns:xlink="http://www.w3.org/1999/xlink" width="275.936" height="206.795" viewBox="0 0 275.936 206.795">
  <defs>
    <clipPath id="clip-path">
      <rect id="Rechteck_207" data-name="Rechteck 207" width="275.936" height="206.795" transform="translate(-0.95 -2)" fill="none"/>
    </clipPath>
  </defs>
  <g id="Logo_Kloster" transform="translate(0.95 2)" clip-path="url(#clip-path)">
    <path id="Pfad_728" data-name="Pfad 728" d="M16.75,167.8V69.61C16.642,28.744,48.378,5.163,52.792,3,57.118,4.947,88.7,28.311,88.725,69.61c0,21.352-.325,85.582-.389,98.173Z" transform="translate(18.536 1.49)" fill="#fff"/>
    <path id="Pfad_729" data-name="Pfad 729" d="M53.99,6.694C60.35,10.48,87.716,33.022,87.716,70.86c0,20.336-.281,79.525-.368,96.01H20.068V70.838C20,33.369,47.586,10.653,53.99,6.694M53.968,2Zm0,0C50.939,2,15.677,27.29,15.72,70.773V171.131H91.61s.433-76.388.433-100.271C92.043,26.6,56.975,2,53.968,2" transform="translate(17.338 0.327)" fill="#8d634b"/>
    <path id="Pfad_730" data-name="Pfad 730" d="M185.113,132.839,48.93,133.12l.281-102.11,135.9,18.756Z" transform="translate(58.028 38.402)" fill="#8d634b"/>
    <path id="Pfad_731" data-name="Pfad 731" d="M1.035,97.9a18.022,18.022,0,0,0,.151-2.639h.584a8.026,8.026,0,0,0,.13,1.471,1.623,1.623,0,0,0,.476.476,3.9,3.9,0,0,0,1,.454,4.154,4.154,0,0,0,1.211.195,3.289,3.289,0,0,0,1.579-.389A2.4,2.4,0,0,0,7.2,96.433a3.007,3.007,0,0,0,.325-1.363,2.7,2.7,0,0,0-.151-.973,1.644,1.644,0,0,0-.5-.649,2.163,2.163,0,0,0-.844-.346l-1.255-.173a7.731,7.731,0,0,1-1.6-.26A3.332,3.332,0,0,1,1.9,92.041a2.64,2.64,0,0,1-.692-.952,3.613,3.613,0,0,1,.281-3.159,3.31,3.31,0,0,1,1.536-1.385,5,5,0,0,1,2.163-.476,8.351,8.351,0,0,1,1.558.173,7.787,7.787,0,0,1,1.6.562,6.49,6.49,0,0,0-.173,1v1.363H7.525a8.307,8.307,0,0,0,0-1.428,1.926,1.926,0,0,0-.562-.541,3.7,3.7,0,0,0-1.817-.5,2.661,2.661,0,0,0-1.969.757,2.7,2.7,0,0,0-.736,1.925A2.012,2.012,0,0,0,2.7,90.5a1.882,1.882,0,0,0,.952.627,10.06,10.06,0,0,0,1.514.3l1.9.281a3.655,3.655,0,0,1,1.168.562,2.552,2.552,0,0,1,.627.865,2.726,2.726,0,0,1,.26,1.233A3.872,3.872,0,0,1,7.72,97.319a5.235,5.235,0,0,1-3.613,1.233A6.988,6.988,0,0,1,1.079,97.9" transform="translate(0.178 98.13)" fill="#383535"/>
    <path id="Pfad_732" data-name="Pfad 732" d="M12.173,94.772l-.281.606a8.087,8.087,0,0,1-.865.476,6.489,6.489,0,0,1-.909.3,4.2,4.2,0,0,1-1.06,0,4.456,4.456,0,0,1-2.034-.346A3.288,3.288,0,0,1,5.64,94.49a4.327,4.327,0,0,1-.519-2.163A5.711,5.711,0,0,1,5.4,90.575a3.137,3.137,0,0,1,.606-1.147,4.325,4.325,0,0,1,.757-.627,5.8,5.8,0,0,1,1.017-.541A3.612,3.612,0,0,1,9.188,88a3.526,3.526,0,0,1,1.709.433A2.553,2.553,0,0,1,12.022,89.6a3.851,3.851,0,0,1,.346,1.687,5.5,5.5,0,0,1,0,.562,7.85,7.85,0,0,1-1.017.043,17.022,17.022,0,0,1-1.817,0H6.743a4.478,4.478,0,0,0,.411,1.947,2.639,2.639,0,0,0,1.125,1.1,3.115,3.115,0,0,0,1.449.346,3.438,3.438,0,0,0,1.038-.151,7.118,7.118,0,0,0,1.255-.606Zm-5.43-3.483h4.11a1.99,1.99,0,0,0,0-.325,2.985,2.985,0,0,0-.541-1.947,1.86,1.86,0,0,0-1.449-.627,1.947,1.947,0,0,0-1.558.692,3.245,3.245,0,0,0-.584,2.163" transform="translate(5.006 100.375)" fill="#383535"/>
    <path id="Pfad_733" data-name="Pfad 733" d="M9.281,96.069v-.476h.8a.757.757,0,0,0,.281,0,.5.5,0,0,0,.151-.151,1.536,1.536,0,0,0,0-.584s0-.887,0-2.445V89.969a2.164,2.164,0,0,0,0-.606.325.325,0,0,0-.195-.13,5.343,5.343,0,0,0-1.1,0v-.584A9.021,9.021,0,0,0,11.768,88h.238v1.471l1.1-1.017c.13,0,.216-.195.26-.195a2.034,2.034,0,0,1,.562-.216,2.9,2.9,0,0,1,.757,0,2.747,2.747,0,0,1,1.449.389,2.445,2.445,0,0,1,.974,1.19l.93-.865a3.2,3.2,0,0,1,.433-.368,3.2,3.2,0,0,1,.627-.238,3.394,3.394,0,0,1,.8,0,2.553,2.553,0,0,1,1.623.519,2.163,2.163,0,0,1,.822,1.168,8.134,8.134,0,0,1,.13,1.86v3.353a1.925,1.925,0,0,0,0,.627.281.281,0,0,0,.108.13.411.411,0,0,0,.195,0h.93v.476H20.768V92.305a9.41,9.41,0,0,0-.13-1.925,1.579,1.579,0,0,0-.606-.844,1.817,1.817,0,0,0-1.082-.324,2.033,2.033,0,0,0-1.255.411,1.514,1.514,0,0,0-.562.736A6.663,6.663,0,0,0,17,92v2.942a1.925,1.925,0,0,0,0,.627l.108.13a.411.411,0,0,0,.195,0h.93v.476H14.083V95.7h.8a.758.758,0,0,0,.281,0,.5.5,0,0,0,.151-.151,1.536,1.536,0,0,0,0-.584V91.872a4.933,4.933,0,0,0-.173-1.6,1.558,1.558,0,0,0-.584-.8,1.774,1.774,0,0,0-1.017-.3,2.219,2.219,0,0,0-1.666.757,1.385,1.385,0,0,0-.281.692,8.654,8.654,0,0,0,0,1.406v2.683a1.925,1.925,0,0,0,0,.627v.13h1.147v.476H8.61" transform="translate(9.066 100.375)" fill="#383535"/>
    <path id="Pfad_734" data-name="Pfad 734" d="M16,91.184v-.476a9.064,9.064,0,0,0,2.747-.649l.195.13v6.555a2.163,2.163,0,0,0,0,.627l.108.13a.411.411,0,0,0,.216,0h1.06v.476H16.108V97.5h1.06a.346.346,0,0,0,.151-.151,1.45,1.45,0,0,0,.13-.584V92.85a6.3,6.3,0,0,0,0-1.493.3.3,0,0,0-.173-.195,4.846,4.846,0,0,0-1.125,0m2.012-4.932a.865.865,0,0,1,.671.281.909.909,0,0,1,.281.671,1,1,0,0,1-.281.671.909.909,0,0,1-.671.281.865.865,0,0,1-.671-.281.93.93,0,0,1,0-1.341.866.866,0,0,1,.671-.281" transform="translate(17.664 98.316)" fill="#383535"/>
    <path id="Pfad_735" data-name="Pfad 735" d="M18.446,96.093v-.476h.8a.909.909,0,0,0,.281,0,.281.281,0,0,0,.13-.151,1.449,1.449,0,0,0,.13-.584s0-.887,0-2.445V89.992a1.818,1.818,0,0,0,0-.606.216.216,0,0,0-.173-.13,5.626,5.626,0,0,0-1.1,0v-.584a9.239,9.239,0,0,0,2.423-.649h.216v1.558L22.73,88.24a3.763,3.763,0,0,1,1.32-.26,2.985,2.985,0,0,1,1.3.281,2.033,2.033,0,0,1,.909.692,2.315,2.315,0,0,1,.411,1.082,18.669,18.669,0,0,1,0,2.163v1.493a10.989,10.989,0,0,0,0,1.493.584.584,0,0,0,.13.346.5.5,0,0,0,.281.13h.887v.476H25.023c0-1.385.13-2.163.13-2.639V92.09a9.432,9.432,0,0,0-.108-1.752,1.709,1.709,0,0,0-.649-.909,2.386,2.386,0,0,0-2.4-.043,1.9,1.9,0,0,0-.736.692,2.747,2.747,0,0,0-.238,1.32V94.73a2.163,2.163,0,0,0,0,.627l.108.13a.411.411,0,0,0,.216,0h.93v.476H18.1" transform="translate(20.107 100.352)" fill="#383535"/>
    <path id="Pfad_736" data-name="Pfad 736" d="M24.292,90.272h-.433v-1.1a10.577,10.577,0,0,1,1.752-.952A3.893,3.893,0,0,1,26.78,88a3.331,3.331,0,0,1,1.623.368,2.163,2.163,0,0,1,.974,1.038,3.094,3.094,0,0,1,.238,1.3v4a1.969,1.969,0,0,0,0,.584.346.346,0,0,0,.173.173.606.606,0,0,0,.346,0h.541v.476H28.121V94.448c-1.168.865-1.839,1.363-2.055,1.471a1.752,1.752,0,0,1-.8.173,2.163,2.163,0,0,1-1.6-.562A1.839,1.839,0,0,1,23.1,94.08a2.812,2.812,0,0,1,.195-1.06,2.163,2.163,0,0,1,.476-.757,1.623,1.623,0,0,1,.562-.411,8.978,8.978,0,0,1,1.6-.5,19.291,19.291,0,0,1,2.163-.389A3.245,3.245,0,0,0,27.9,89.71a1.731,1.731,0,0,0-.692-.736,2.163,2.163,0,0,0-1.168-.281,2.747,2.747,0,0,0-.887.13,1.363,1.363,0,0,0-.454.238l-.151.3c-.151.324-.26.606-.346.779M28.1,91.484a18.278,18.278,0,0,0-1.882.411,3.375,3.375,0,0,0-1.1.476,1.211,1.211,0,0,0-.346.433,2.163,2.163,0,0,0-.216.93,1.406,1.406,0,0,0,.346.973,1.32,1.32,0,0,0,.974.346A2.163,2.163,0,0,0,27,94.729a4.457,4.457,0,0,0,1.1-.973Z" transform="translate(25.921 100.374)" fill="#383535"/>
    <path id="Pfad_737" data-name="Pfad 737" d="M27,96.093v-.476h1.233a.519.519,0,0,0,.13-.173,1.9,1.9,0,0,0,0-.606v-4.8a1.817,1.817,0,0,0,0-.606l-.195-.13a5.345,5.345,0,0,0-1.1,0v-.627a9.452,9.452,0,0,0,2.531-.649h.216a.173.173,0,0,1,0,.13v1.731c.26-.281.5-.584.714-.865l.454-.562a1.991,1.991,0,0,1,.584-.346,1.882,1.882,0,0,1,.692-.13,1.536,1.536,0,0,1,.692.151h0c0,.757-.13,1.428-.13,1.99H32.43a1.536,1.536,0,0,0-.454-.606,1.147,1.147,0,0,0-.649-.173,1.363,1.363,0,0,0-1.1.541,2.4,2.4,0,0,0-.454,1.6v2.9a3.44,3.44,0,0,0,0,.671.736.736,0,0,0,0,.216h.195a13.1,13.1,0,0,0,1.363.151V95.9l-2.163.13H27" transform="translate(30.461 100.352)" fill="#383535"/>
    <path id="Pfad_738" data-name="Pfad 738" d="M30,98.978V98.5h.779a.757.757,0,0,0,.281,0,.346.346,0,0,0,.151-.151,1.211,1.211,0,0,0,.108-.584V88.009a4.8,4.8,0,0,0-.108-1.147.216.216,0,0,0-.13-.108A5.084,5.084,0,0,0,30,86.582v-.5a10.34,10.34,0,0,0,2.661-.584h.173v6.815l.671-.584.649-.562.26-.216.476-.173a4.111,4.111,0,0,1,.865,0,3.223,3.223,0,0,1,1.471.368,2.163,2.163,0,0,1,.974.93,4,4,0,0,1,.26,1.644v3.894a1.752,1.752,0,0,0,0,.584.325.325,0,0,0,.108.13.411.411,0,0,0,.195,0h.887V98.8H36.706a23.665,23.665,0,0,0,.13-2.423V94.218a5.343,5.343,0,0,0-.151-1.428,1.471,1.471,0,0,0-.584-.757,1.86,1.86,0,0,0-1.19-.346,2.163,2.163,0,0,0-1.493.541,3.352,3.352,0,0,0-.519.584.93.93,0,0,0-.13.368,8.2,8.2,0,0,0,0,.865v3.548a1.925,1.925,0,0,0,.108.627v.13a.5.5,0,0,0,.216,0h1.233v.476H30" transform="translate(33.951 97.467)" fill="#383535"/>
    <path id="Pfad_739" data-name="Pfad 739" d="M36.134,90.249H35.68v-1.1a10.579,10.579,0,0,1,1.752-.952,4.155,4.155,0,0,1,1.19-.173,3.461,3.461,0,0,1,1.623.368,2.163,2.163,0,0,1,.974,1.038,3.115,3.115,0,0,1,.216,1.3v3.959a1.969,1.969,0,0,0,0,.584.3.3,0,0,0,.151.173.692.692,0,0,0,.368,0h.541v.476H39.92V94.424c-1.147.865-1.817,1.363-2.034,1.471a1.86,1.86,0,0,1-.822.173,2.163,2.163,0,0,1-1.6-.562,1.925,1.925,0,0,1-.562-1.449A2.812,2.812,0,0,1,35.1,93a2.531,2.531,0,0,1,.476-.757,1.926,1.926,0,0,1,.584-.411,8.656,8.656,0,0,1,1.579-.5,20.194,20.194,0,0,1,2.163-.389,3.245,3.245,0,0,0-.195-1.255,1.687,1.687,0,0,0-.671-.736,2.163,2.163,0,0,0-1.19-.281,2.6,2.6,0,0,0-.865.13,1,1,0,0,0-.454.238l-.173.3c-.151.324-.26.606-.325.779M39.9,91.46a18.28,18.28,0,0,0-1.882.411,3.441,3.441,0,0,0-1.082.476,1.212,1.212,0,0,0-.346.433,1.9,1.9,0,0,0-.216.93,1.32,1.32,0,0,0,.346.973,1.255,1.255,0,0,0,.952.346,2.163,2.163,0,0,0,1.125-.325,4.457,4.457,0,0,0,1.1-.973Z" transform="translate(39.65 100.398)" fill="#383535"/>
    <path id="Pfad_740" data-name="Pfad 740" d="M48.452,95.593v.476H45.51V94.533a15.652,15.652,0,0,0-1.211,1.1,1.3,1.3,0,0,1-.3.238,4.068,4.068,0,0,1-.736.3,4.867,4.867,0,0,1-.865,0,2.942,2.942,0,0,1-1.147-.195,1.839,1.839,0,0,1-1.168-1.3,3.743,3.743,0,0,1-.13-1.06,4.7,4.7,0,0,1,0-.563V89.99a3.051,3.051,0,0,0,0-.714.216.216,0,0,0,0-.13.8.8,0,0,0-.454,0H38.76v-.5A7.356,7.356,0,0,0,41.4,88h.216a.151.151,0,0,1,0,.13v4.759a5.517,5.517,0,0,0,.13,1.449,1.255,1.255,0,0,0,.541.671,2.163,2.163,0,0,0,1,.238,2.487,2.487,0,0,0,.8-.13,2.7,2.7,0,0,0,.736-.411,2.833,2.833,0,0,0,.476-.519,1.385,1.385,0,0,0,.238-.368,1.3,1.3,0,0,0,0-.389V90.12a3.051,3.051,0,0,0,0-.714.216.216,0,0,0,0-.13.8.8,0,0,0-.454,0h-.736v-.627A7.356,7.356,0,0,0,46.981,88H47.2a.281.281,0,0,1,0,.13v6.642a1.9,1.9,0,0,0,0,.606l.13.13a.411.411,0,0,0,.195,0h.93" transform="translate(44.142 100.375)" fill="#383535"/>
    <path id="Pfad_741" data-name="Pfad 741" d="M43.939,93.6h.411a6.206,6.206,0,0,0,0,.779,2.639,2.639,0,0,0,.13.562.974.974,0,0,0,.325.454,1.3,1.3,0,0,0,.454.3l.5.151h.8a2.163,2.163,0,0,0,1.406-.454,1.536,1.536,0,0,0,.562-1.255,1.233,1.233,0,0,0-.173-.627,1.168,1.168,0,0,0-.5-.411,8.652,8.652,0,0,0-1.406-.411c-.714-.151-1.168-.281-1.385-.346a2.163,2.163,0,0,1-.757-.433,1.709,1.709,0,0,1-.433-.649,1.839,1.839,0,0,1-.173-.844,2.163,2.163,0,0,1,.346-1.211,2.51,2.51,0,0,1,1.1-.93,3.807,3.807,0,0,1,1.644-.346,5.6,5.6,0,0,1,1.233.151,5.105,5.105,0,0,1,1.147.368c0,.627,0,1.255,0,1.9h-.5a5.389,5.389,0,0,0,0-.8,1.277,1.277,0,0,0-.151-.346,1.146,1.146,0,0,0-.325-.325,2.445,2.445,0,0,0-.584-.325,2.554,2.554,0,0,0-.887-.13,1.709,1.709,0,0,0-1.19.433,1.428,1.428,0,0,0-.454,1.038,1.147,1.147,0,0,0,.13.562,1.211,1.211,0,0,0,.346.389,1.882,1.882,0,0,0,.627.26l1.406.346a10.69,10.69,0,0,1,1.471.476,1.406,1.406,0,0,1,.627.606,1.774,1.774,0,0,1,.26.974A2.618,2.618,0,0,1,49,95.5a3.634,3.634,0,0,1-2.509.865,11.14,11.14,0,0,1-1.947-.238,2.164,2.164,0,0,1-.714-.173v-.13a4.782,4.782,0,0,0,0-.714V93.663" transform="translate(49.888 100.293)" fill="#383535"/>
    <path id="Pfad_742" data-name="Pfad 742" d="M53.972,97.6v.541H49.04V97.6a5.688,5.688,0,0,0,1.211,0,.519.519,0,0,0,.3-.195,2.294,2.294,0,0,0,.13-.844V88.016a2.726,2.726,0,0,0-.13-.952.476.476,0,0,0-.3-.216,5.538,5.538,0,0,0-1.211,0v-.541h4.932v.541a5.537,5.537,0,0,0-1.211,0,.454.454,0,0,0-.3.195,2.293,2.293,0,0,0-.13.822s0,.909,0,2.4v1.752a5.344,5.344,0,0,0,1.082-.865l1.082-1.038,1.882-1.882c.714-.714,1.168-1.19,1.341-1.406V86.22h2.9v.541a5.8,5.8,0,0,0-1.082,0,2.163,2.163,0,0,0-.541.26,20.549,20.549,0,0,0-1.666,1.428L53.951,91.52l5.084,4.759c.8.757,1.276,1.19,1.385,1.255a1.385,1.385,0,0,0,.649,0v.519H58.645l-1.406-1.363-.865-.844-3.851-3.591h-.195v3.807a2.575,2.575,0,0,0,0,.974.606.606,0,0,0,.325.216,5.539,5.539,0,0,0,1.211,0" transform="translate(56.101 98.304)" fill="#383535"/>
    <path id="Pfad_743" data-name="Pfad 743" d="M54.84,98.454v-.5h.8a.5.5,0,0,0,.281,0l.151-.13a1.363,1.363,0,0,0,.108-.606V88.308a5.453,5.453,0,0,0,0-1.125.2.2,0,0,0-.13-.13,8.805,8.805,0,0,0-1.168,0v-.5a10.124,10.124,0,0,0,2.661-.606h.26V97.091a1.774,1.774,0,0,0,.108.606v.13a.411.411,0,0,0,.195,0h.93v.5H54.862" transform="translate(62.848 97.99)" fill="#383535"/>
    <path id="Pfad_744" data-name="Pfad 744" d="M57.242,92.178a4.11,4.11,0,0,1,1.19-3.072A4.327,4.327,0,0,1,61.525,88a3.829,3.829,0,0,1,4,4,4.327,4.327,0,0,1-.562,2.163,3.98,3.98,0,0,1-1.623,1.6,4.651,4.651,0,0,1-2.315.584,3.872,3.872,0,0,1-1.666-.325,3.353,3.353,0,0,1-1.1-.822,4.327,4.327,0,0,1-.627-1.038,4.911,4.911,0,0,1-.389-1.969m1.6-.627a6.684,6.684,0,0,0,.346,2.163,3.115,3.115,0,0,0,1,1.579,2.315,2.315,0,0,0,1.428.476,2.163,2.163,0,0,0,1.644-.779,3.591,3.591,0,0,0,.649-2.38,6.252,6.252,0,0,0-.389-2.466,2.942,2.942,0,0,0-1-1.385,2.531,2.531,0,0,0-1.363-.411,2.163,2.163,0,0,0-1.666.757,3.548,3.548,0,0,0-.649,2.336" transform="translate(65.638 100.373)" fill="#383535"/>
    <path id="Pfad_745" data-name="Pfad 745" d="M61.723,93.6h.519a6.943,6.943,0,0,0,0,.779,2.7,2.7,0,0,0,.151.562,1.125,1.125,0,0,0,.3.454,1.6,1.6,0,0,0,.476.3l.5.151h.865a2.163,2.163,0,0,0,1.428-.454,1.514,1.514,0,0,0,.541-1.255,1.233,1.233,0,0,0-.173-.627,1.038,1.038,0,0,0-.5-.411,8.006,8.006,0,0,0-1.406-.411c-.714-.151-1.168-.281-1.385-.346a2.011,2.011,0,0,1-.736-.433,1.752,1.752,0,0,1-.454-.649,2.165,2.165,0,0,1,.195-2.055,2.271,2.271,0,0,1,1.1-.93,3.7,3.7,0,0,1,1.623-.346,5.321,5.321,0,0,1,1.233.151,4.76,4.76,0,0,1,1.147.368v1.9h-.476a6.668,6.668,0,0,0,0-.8,1.277,1.277,0,0,0-.151-.346,1.147,1.147,0,0,0-.325-.325,2.444,2.444,0,0,0-.584-.325,2.638,2.638,0,0,0-.887-.13,1.666,1.666,0,0,0-1.19.433,1.428,1.428,0,0,0-.454,1.038,1.147,1.147,0,0,0,.13.562,1,1,0,0,0,.346.389,1.752,1.752,0,0,0,.606.26l1.406.346a9.735,9.735,0,0,1,1.471.476,1.579,1.579,0,0,1,.649.606,1.969,1.969,0,0,1,.238.973A2.6,2.6,0,0,1,67,95.5a3.656,3.656,0,0,1-2.531.865,11.181,11.181,0,0,1-1.925-.238,2.162,2.162,0,0,1-.736-.173h0a.281.281,0,0,1,0-.13,4.567,4.567,0,0,0,0-.714V93.663" transform="translate(70.806 100.293)" fill="#383535"/>
    <path id="Pfad_746" data-name="Pfad 746" d="M64.933,90.9v-.368a13.321,13.321,0,0,0,1.341-.562V87.4A6.339,6.339,0,0,0,67.7,86.75l.195.173c0,.454-.13,1.493-.195,3.094h2.336l-.173.779H67.7v4.932a1.125,1.125,0,0,0,.173.433.822.822,0,0,0,.3.3,1.774,1.774,0,0,0,.649.151h.562a2.639,2.639,0,0,0,.541-.151v.325l-.779.649a2.357,2.357,0,0,1-.606.173H67.94a1.384,1.384,0,0,1-1.579-.757,2.4,2.4,0,0,1-.173-.865V94.733a1.425,1.425,0,0,0,0-.3V90.86h-.346a7.505,7.505,0,0,0-.952,0" transform="translate(74.54 98.921)" fill="#383535"/>
    <path id="Pfad_747" data-name="Pfad 747" d="M74.571,94.876l-.281.606-.844.476a6.489,6.489,0,0,1-.909.3,4.327,4.327,0,0,1-1.082,0,4.435,4.435,0,0,1-2.012-.454,3.332,3.332,0,0,1-1.406-1.385,4.651,4.651,0,0,1-.5-2.163,5.711,5.711,0,0,1,.26-1.752,3.483,3.483,0,0,1,.606-1.147,5.256,5.256,0,0,1,.757-.627,5.972,5.972,0,0,1,1.038-.541,3.44,3.44,0,0,1,1.428-.281,3.4,3.4,0,0,1,1.709.433,2.553,2.553,0,0,1,1.125,1.168,3.873,3.873,0,0,1,.368,1.687v.562a8.034,8.034,0,0,1-1.082.151,17.709,17.709,0,0,1-1.839,0H69.163a3.937,3.937,0,0,0,.411,1.947,2.466,2.466,0,0,0,1.1,1.1,3.375,3.375,0,0,0,2.488.195,7.2,7.2,0,0,0,1.276-.606Zm-5.408-3.483h4.11v-.26a2.877,2.877,0,0,0-.541-1.947,1.86,1.86,0,0,0-1.449-.627,1.947,1.947,0,0,0-1.536.692,3.245,3.245,0,0,0-.584,2.163" transform="translate(77.623 100.27)" fill="#383535"/>
    <path id="Pfad_748" data-name="Pfad 748" d="M71.558,96.093v-.476h1.233a.476.476,0,0,0,0-.173,1.363,1.363,0,0,0,0-.606v-4.8a1.514,1.514,0,0,0,0-.606.324.324,0,0,0-.195-.13,5.344,5.344,0,0,0-1.1,0v-.627a9.021,9.021,0,0,0,2.661-.649h.238a.173.173,0,0,1,0,.13.281.281,0,0,1,0,.13c0,.346,0,.887,0,1.6.26-.281.476-.584.692-.865a4,4,0,0,1,.476-.562,1.99,1.99,0,0,1,.584-.346,1.752,1.752,0,0,1,.671-.13,1.687,1.687,0,0,1,.714.151h0a17.912,17.912,0,0,0-.13,1.99h-.389a1.536,1.536,0,0,0-.454-.606,1.212,1.212,0,0,0-.649-.173,1.363,1.363,0,0,0-1.1.541,2.4,2.4,0,0,0-.454,1.6v2.9a3.44,3.44,0,0,0,0,.671.411.411,0,0,0,0,.216h.173a13.893,13.893,0,0,0,1.385.151V95.9H71.19" transform="translate(81.869 100.352)" fill="#383535"/>
    <path id="Pfad_749" data-name="Pfad 749" d="M76.625,97.9a21.779,21.779,0,0,0,.151-2.639h.584a6.338,6.338,0,0,0,.151,1.471,1.233,1.233,0,0,0,.476.476,3.569,3.569,0,0,0,1,.454,4.044,4.044,0,0,0,1.211.195,3.2,3.2,0,0,0,1.558-.389,2.466,2.466,0,0,0,1.06-1.038,3.007,3.007,0,0,0,.325-1.363,2.705,2.705,0,0,0-.173-.974,1.471,1.471,0,0,0-.5-.649,1.882,1.882,0,0,0-.844-.346l-1.233-.173a7.491,7.491,0,0,1-1.6-.26,3.613,3.613,0,0,1-1.3-.627,2.6,2.6,0,0,1-.671-.952,3.2,3.2,0,0,1-.26-1.276,3.634,3.634,0,0,1,.519-1.882,3.418,3.418,0,0,1,1.536-1.385,5.062,5.062,0,0,1,2.163-.476,8.655,8.655,0,0,1,1.579.173,7.592,7.592,0,0,1,1.579.562,6.324,6.324,0,0,1-.173,1c-.043.3,0,.757,0,1.363h-.627V87.736a2.358,2.358,0,0,0-.584-.541,3.7,3.7,0,0,0-1.817-.5,2.574,2.574,0,0,0-1.947.757,2.618,2.618,0,0,0-.736,1.925,2.012,2.012,0,0,0,.26,1.125,1.731,1.731,0,0,0,.93.627,10.491,10.491,0,0,0,1.536.3l1.9.281a4.2,4.2,0,0,1,1.168.562,2.877,2.877,0,0,1,.627.865,3.05,3.05,0,0,1,.238,1.233,3.851,3.851,0,0,1-1.385,2.942,5.257,5.257,0,0,1-3.613,1.233A6.836,6.836,0,0,1,76.69,97.9" transform="translate(88.116 98.13)" fill="#383535"/>
    <path id="Pfad_750" data-name="Pfad 750" d="M87.5,95.131l-.325.562a4.326,4.326,0,0,1-1.168.454,4.586,4.586,0,0,1-1.276.151,3.851,3.851,0,0,1-2.834-1.06,4.089,4.089,0,0,1-1.06-2.877,5.171,5.171,0,0,1,.281-1.731,3.159,3.159,0,0,1,.714-1.125,5.063,5.063,0,0,1,1.06-.714c.519-.3.887-.5,1.082-.584a3.787,3.787,0,0,1,1.385-.238,6.493,6.493,0,0,1,1.363.151,4.087,4.087,0,0,1,.779.346,2.173,2.173,0,0,1-.13,1,12.008,12.008,0,0,0-.13,1.211h-.476a5.2,5.2,0,0,0,0-1.038.433.433,0,0,0-.151-.216,2.617,2.617,0,0,0-.779-.411,3.073,3.073,0,0,0-1.038-.173,2.466,2.466,0,0,0-1.233.281,2.012,2.012,0,0,0-.8.93,3.829,3.829,0,0,0-.281,1.579,5.386,5.386,0,0,0,.389,2.163,3.072,3.072,0,0,0,1.1,1.363,3.007,3.007,0,0,0,1.558.411,2.661,2.661,0,0,0,.844,0,6.039,6.039,0,0,0,1.06-.389Z" transform="translate(93.094 100.34)" fill="#383535"/>
    <path id="Pfad_751" data-name="Pfad 751" d="M84.5,98.885v-.476h.8a.757.757,0,0,0,.281,0,.5.5,0,0,0,.151-.151,1.536,1.536,0,0,0,0-.584V87.916a5.558,5.558,0,0,0,0-1.147.216.216,0,0,0-.13-.108,5.085,5.085,0,0,0-1.168,0v-.5A10.34,10.34,0,0,0,87.1,85.58h.151a.606.606,0,0,1,0,.173v6.641l.671-.584.649-.562.26-.216.476-.173a3.914,3.914,0,0,1,.844,0,3.159,3.159,0,0,1,1.471.368,1.947,1.947,0,0,1,.973.93,3.613,3.613,0,0,1,.281,1.644v3.894a1.753,1.753,0,0,0,0,.584v.13a.5.5,0,0,0,.216,0h.865v.476H91.036V94.3a5.559,5.559,0,0,0-.13-1.428,1.753,1.753,0,0,0-.584-.757,1.861,1.861,0,0,0-1.19-.346,2.422,2.422,0,0,0-.822.13,2.164,2.164,0,0,0-.671.411,3.354,3.354,0,0,0-.519.584.931.931,0,0,0-.13.368,6.627,6.627,0,0,0,0,.865V97.5a2.164,2.164,0,0,0,0,.627.325.325,0,0,0,0,.13.411.411,0,0,0,.195,0h.952v.476H83.81" transform="translate(96.551 97.56)" fill="#383535"/>
    <path id="Pfad_752" data-name="Pfad 752" d="M92.225,96.133l-.346-1.168L91.1,92.3c-.238-.757-.454-1.471-.692-2.163a6.858,6.858,0,0,0-.476-1.211.519.519,0,0,0-.281-.238,3.073,3.073,0,0,0-.8,0v-.5H93v.5a8.647,8.647,0,0,0-1.017,0,.368.368,0,0,0-.238.13.346.346,0,0,0,0,.195,7.287,7.287,0,0,0,.238,1.06l.779,2.7c.13.454.3.952.476,1.493l.649-1.471,1.233-2.791c.3-.649.584-1.32.844-1.99h.411c.368,1.038.627,1.709.757,2.163l.974,2.445c.324.822.584,1.449.757,1.86l.627-1.666c.411-1.082.736-1.99.952-2.747a3.377,3.377,0,0,0,.195-.865.389.389,0,0,0-.151-.346,3.158,3.158,0,0,0-1.1,0v-.5h3.375v.5a1.471,1.471,0,0,0-.649,0,.671.671,0,0,0-.3.26,10.316,10.316,0,0,0-.671,1.341l-.887,2.163-.389.952-.649,1.709a8.459,8.459,0,0,0-.346,1.06h-.8l-.411-1.038-1.99-5.062L94.864,92l-.974,2.163q-.324.714-.519,1.233l-.281.779Z" transform="translate(102.414 100.398)" fill="#383535"/>
    <path id="Pfad_753" data-name="Pfad 753" d="M96.924,90.249H96.47v-1.1a10.577,10.577,0,0,1,1.752-.952,4.045,4.045,0,0,1,1.19-.173,3.462,3.462,0,0,1,1.622.368,2.163,2.163,0,0,1,.973,1.038,3.114,3.114,0,0,1,.216,1.3v3.959a1.969,1.969,0,0,0,0,.584.3.3,0,0,0,.151.173.649.649,0,0,0,.346,0h.562v.476H100.71V94.424c-1.147.865-1.839,1.363-2.034,1.471a1.86,1.86,0,0,1-.822.173,2.163,2.163,0,0,1-1.6-.562,1.925,1.925,0,0,1-.562-1.449A2.813,2.813,0,0,1,95.886,93a2.532,2.532,0,0,1,.476-.692,2.164,2.164,0,0,1,.562-.411,9.606,9.606,0,0,1,1.6-.5,20.194,20.194,0,0,1,2.163-.389,3.244,3.244,0,0,0-.195-1.255,1.623,1.623,0,0,0-.692-.736,2.163,2.163,0,0,0-1.168-.281,2.6,2.6,0,0,0-.865.13,1.319,1.319,0,0,0-.476.238l-.151.3c-.151.324-.26.606-.324.779m3.872,1.341a18.284,18.284,0,0,0-1.882.411,3.029,3.029,0,0,0-1.082.476,1.016,1.016,0,0,0-.346.433,1.9,1.9,0,0,0-.216.93,1.32,1.32,0,0,0,.346.974,1.233,1.233,0,0,0,.952.346,2.163,2.163,0,0,0,1.125-.325,4.455,4.455,0,0,0,1.1-.973Z" transform="translate(110.37 100.398)" fill="#383535"/>
    <path id="Pfad_754" data-name="Pfad 754" d="M99.776,96.093v-.476h1.255a.476.476,0,0,0,0-.173,1.775,1.775,0,0,0,0-.606v-4.8a2.164,2.164,0,0,0,0-.606.324.324,0,0,0-.195-.13,5.471,5.471,0,0,0-1.1,0v-.627a9.237,9.237,0,0,0,2.661-.649h.238v1.86l.692-.865a4,4,0,0,1,.476-.562,1.558,1.558,0,0,1,.584-.346,1.752,1.752,0,0,1,.671-.13,1.687,1.687,0,0,1,.714.151h0c0,.757-.13,1.428-.151,1.99h-.368a1.536,1.536,0,0,0-.454-.606,1.212,1.212,0,0,0-.649-.173,1.363,1.363,0,0,0-1.1.541,2.4,2.4,0,0,0-.454,1.6v2.9a3.439,3.439,0,0,0,0,.671.411.411,0,0,0,0,.216h.173a6.408,6.408,0,0,1,1.363.151V95.9H99.43" transform="translate(114.722 100.352)" fill="#383535"/>
    <path id="Pfad_755" data-name="Pfad 755" d="M102.75,96.058v-.389l1.363-1.493,2.985-3.721c.173-.195.562-.736,1.211-1.644h-3.267a2.423,2.423,0,0,0-.671,0h0a1.859,1.859,0,0,0,0,.411l-.173.973h-.476V88.01h6.663v.454q-.584.584-2.012,2.4c-1.8,2.293-2.942,3.764-3.4,4.327h2.574a10.641,10.641,0,0,0,1.882-.173h.216a12.224,12.224,0,0,0,.324-1.428h.519a4.769,4.769,0,0,1-.151,1.19c-.022.13,0,.476,0,1.19a6.49,6.49,0,0,1-1.233,0h-3.678Z" transform="translate(118.585 100.387)" fill="#383535"/>
    <path id="Pfad_756" data-name="Pfad 756" d="M113.758,94.783l-.281.606-.844.476a6.487,6.487,0,0,1-.909.3,4.326,4.326,0,0,1-1.082,0,4.435,4.435,0,0,1-2.012-.454,3.332,3.332,0,0,1-1.363-1.211,4.652,4.652,0,0,1-.5-2.163,5.71,5.71,0,0,1,.26-1.752,3.484,3.484,0,0,1,.606-1.147,5.258,5.258,0,0,1,.757-.627,5.973,5.973,0,0,1,1.038-.541,3.44,3.44,0,0,1,1.428-.281,3.4,3.4,0,0,1,1.709.433,2.553,2.553,0,0,1,1.125,1.168,3.872,3.872,0,0,1,.368,1.687c0,.151,0,.346,0,.562a8.023,8.023,0,0,1-1.082.151,17.709,17.709,0,0,1-1.839,0h-2.7a3.937,3.937,0,0,0,.411,1.947,2.466,2.466,0,0,0,1.1,1.1,3.375,3.375,0,0,0,2.488.195,7.206,7.206,0,0,0,1.276-.606ZM108.35,91.3h4.11v-.26a2.877,2.877,0,0,0-.541-1.947,1.86,1.86,0,0,0-1.449-.627,1.947,1.947,0,0,0-1.536.692,3.245,3.245,0,0,0-.584,2.163" transform="translate(123.261 100.363)" fill="#383535"/>
    <path id="Pfad_757" data-name="Pfad 757" d="M110.545,96.081v-.476h.8a.757.757,0,0,0,.281,0,.5.5,0,0,0,.151-.151,1.536,1.536,0,0,0,0-.584V89.98a2.163,2.163,0,0,0,0-.606.325.325,0,0,0-.195-.13,5.346,5.346,0,0,0-1.1,0v-.584a9.021,9.021,0,0,0,2.488-.627h.238v1.558l1.558-1.341a3.851,3.851,0,0,1,1.32-.26,2.986,2.986,0,0,1,1.3.281,2.163,2.163,0,0,1,.93.692,2.575,2.575,0,0,1,.411,1.082V93.7a10.988,10.988,0,0,0,0,1.493.757.757,0,0,0,.13.346.5.5,0,0,0,.281.13h1.125v.476h-2.964c0-1.385.13-2.163.13-2.639V92.1a9.433,9.433,0,0,0,0-1.752,1.493,1.493,0,0,0-.649-.909,2.336,2.336,0,0,0-2.38,0,1.839,1.839,0,0,0-.757.692,2.791,2.791,0,0,0-.216,1.32v3.267a1.493,1.493,0,0,0,.108.627v.13a.5.5,0,0,0,.216,0h.93v.476H110.5" transform="translate(127.577 100.363)" fill="#383535"/>
    <path id="Pfad_758" data-name="Pfad 758" d="M115.628,91.926V91.58a8.046,8.046,0,0,0,1.147-.606v-.519a6.145,6.145,0,0,1,.151-1.558,2.51,2.51,0,0,1,.389-.8,11.338,11.338,0,0,1,1.211-1.341,3.958,3.958,0,0,1,.8-.671,1.925,1.925,0,0,1,.822-.173,2.551,2.551,0,0,1,.671,0v1.406h-.195a2.163,2.163,0,0,0-.519-.3,1.32,1.32,0,0,0-.606,0,1.471,1.471,0,0,0-.736.173,1.039,1.039,0,0,0-.411.541,4.933,4.933,0,0,0-.13,1.406v1.752H120.5l-.173.865h-2.163v5.084a2.4,2.4,0,0,0,0,.671.411.411,0,0,0,0,.195.26.26,0,0,0,.173,0,9.177,9.177,0,0,0,1.363.151v.476H115.13v-.476h1.082a.5.5,0,0,0,.151-.151,2.164,2.164,0,0,0,.108-.584V91.839Z" transform="translate(132.987 97.92)" fill="#383535"/>
    <path id="Pfad_759" data-name="Pfad 759" d="M124.951,94.876l-.26.606c-.389.238-.692.389-.865.476a6.485,6.485,0,0,1-.909.3,4.327,4.327,0,0,1-1.082,0,4.435,4.435,0,0,1-2.012-.454,3.331,3.331,0,0,1-1.406-1.385,4.651,4.651,0,0,1-.5-2.163,5.714,5.714,0,0,1,.26-1.752,3.958,3.958,0,0,1,.606-1.147,5.646,5.646,0,0,1,.779-.627,5.128,5.128,0,0,1,1.017-.541,3.721,3.721,0,0,1,3.158.151,2.509,2.509,0,0,1,1.1,1.168,3.872,3.872,0,0,1,.368,1.687v.563a7.181,7.181,0,0,1-1.082.151,17.438,17.438,0,0,1-1.839,0h-2.7A4.2,4.2,0,0,0,120,93.859a2.466,2.466,0,0,0,1.1,1.1,3.267,3.267,0,0,0,1.471.346,3.225,3.225,0,0,0,1.017-.151,7.206,7.206,0,0,0,1.276-.606Zm-5.408-3.483h4.11v-.26a2.877,2.877,0,0,0-.541-1.947,1.817,1.817,0,0,0-1.449-.627,1.947,1.947,0,0,0-1.536.692,3.245,3.245,0,0,0-.584,2.163" transform="translate(136.232 100.271)" fill="#383535"/>
    <path id="Pfad_760" data-name="Pfad 760" d="M121.8,98.454v-.5h.8a.5.5,0,0,0,.281,0l.151-.13a1.362,1.362,0,0,0,.108-.606s0-.887,0-2.423v-6.49a5.452,5.452,0,0,0,0-1.125.2.2,0,0,0-.13-.13,8.807,8.807,0,0,0-1.168,0v-.5a10.124,10.124,0,0,0,2.661-.606h.151V97.091a1.774,1.774,0,0,0,.108.606v.13a.411.411,0,0,0,.195,0h.93v.5H121.71" transform="translate(140.642 97.99)" fill="#383535"/>
    <path id="Pfad_761" data-name="Pfad 761" d="M124.32,93.6h.5a6.95,6.95,0,0,0,0,.779,5.412,5.412,0,0,0,.151.562.973.973,0,0,0,.324.454,1.3,1.3,0,0,0,.454.3l.5.151h.779a2.163,2.163,0,0,0,1.428-.454,1.514,1.514,0,0,0,.541-1.255,1.06,1.06,0,0,0-.173-.627,1.039,1.039,0,0,0-.5-.411,8.2,8.2,0,0,0-1.385-.411c-.714-.151-1.19-.281-1.385-.346a1.947,1.947,0,0,1-.757-.433,1.753,1.753,0,0,1-.454-.649,2.344,2.344,0,0,1,.195-2.055,2.51,2.51,0,0,1,1.1-.93,3.743,3.743,0,0,1,1.644-.346,5.6,5.6,0,0,1,1.233.151,4.889,4.889,0,0,1,1.125.368v1.9h-.476a6.668,6.668,0,0,0,0-.8,1.276,1.276,0,0,0-.151-.346,1.147,1.147,0,0,0-.324-.325,2.444,2.444,0,0,0-.584-.325,2.638,2.638,0,0,0-.887-.13,1.666,1.666,0,0,0-1.19.433,1.428,1.428,0,0,0-.454,1.038,1.147,1.147,0,0,0,.13.562,1.212,1.212,0,0,0,.346.389,1.709,1.709,0,0,0,.627.26l1.406.346a10.126,10.126,0,0,1,1.449.476,1.363,1.363,0,0,1,.649.606,1.774,1.774,0,0,1,.26.974,2.618,2.618,0,0,1-.952,1.99,3.656,3.656,0,0,1-2.531.865,11.184,11.184,0,0,1-1.925-.238,1.817,1.817,0,0,1-.714-.173h0V93.663" transform="translate(143.527 100.293)" fill="#383535"/>
  </g>
</svg>
