<svg xmlns="http://www.w3.org/2000/svg" width="40.897" height="28.176" viewBox="0 0 40.897 28.176">
  <g id="Gruppe_338" data-name="Gruppe 338" transform="translate(-7.135 -13)">
    <path id="Pfad_248" data-name="Pfad 248" d="M1.441-8.622v-3.085h14v3.085Z" transform="translate(32.591 24.707)" fill="#fff"/>
    <path id="Pfad_729" data-name="Pfad 729" d="M9.483,0,8.552-3.059H3.867L2.936,0H0L4.535-12.9H7.866L12.419,0ZM7.9-5.344Q6.609-9.5,6.447-10.046t-.233-.861q-.29,1.125-1.661,5.563ZM20.065,0l-.519-1.336h-.07A3.959,3.959,0,0,1,18.083-.154a4.5,4.5,0,0,1-1.868.33,3.02,3.02,0,0,1-2.228-.809,3.105,3.105,0,0,1-.813-2.3,2.593,2.593,0,0,1,1.094-2.307,6.341,6.341,0,0,1,3.3-.822l1.705-.053v-.431a1.336,1.336,0,0,0-1.529-1.494,6.969,6.969,0,0,0-2.769.712l-.888-1.811a7.988,7.988,0,0,1,3.762-.888,4.686,4.686,0,0,1,3.032.861,3.183,3.183,0,0,1,1.055,2.619V0Zm-.791-4.553-1.037.035A3.321,3.321,0,0,0,16.5-4.1a1.325,1.325,0,0,0-.571,1.178q0,1.134,1.3,1.134a2.06,2.06,0,0,0,1.49-.536,1.883,1.883,0,0,0,.558-1.424Z" transform="translate(7.135 41)" fill="#fff"/>
  </g>
</svg>
