<svg xmlns="http://www.w3.org/2000/svg" width="16.68" height="16.679" viewBox="0 0 16.68 16.679">
  <path id="ios-call" d="M80.055,77.095a14.01,14.01,0,0,0-2.927-1.958c-.877-.421-1.2-.413-1.819.035-.517.373-.851.721-1.446.591a8.626,8.626,0,0,1-2.9-2.149,8.563,8.563,0,0,1-2.149-2.9c-.126-.6.221-.929.591-1.446.447-.621.46-.942.035-1.819a13.733,13.733,0,0,0-1.958-2.927c-.638-.638-.782-.5-1.133-.373a6.449,6.449,0,0,0-1.038.551,3.131,3.131,0,0,0-1.246,1.316c-.248.534-.534,1.528.925,4.125a23.018,23.018,0,0,0,4.047,5.4l0,0,0,0a23.107,23.107,0,0,0,5.4,4.047c2.6,1.459,3.591,1.172,4.125.925a3.077,3.077,0,0,0,1.316-1.246,6.449,6.449,0,0,0,.551-1.038C80.555,77.877,80.7,77.733,80.055,77.095Z" transform="translate(-63.857 -64.035)" fill="#383535"/>
</svg>
